<svg xmlns="http://www.w3.org/2000/svg" width="571" height="479" viewBox="0 0 571 479">
  <defs>
    <style>
      .cls-1 {
        fill-rule: evenodd;
      }
    </style>
  </defs>
  <path id="Rounded_Rectangle_1" data-name="Rounded Rectangle 1" class="cls-1" d="M565.434,154.659l0.5,0.127-16.469,69.378-0.758-.073c-3.236,10.094-9.171,25.089-20.2,33.253a53.674,53.674,0,0,1-13.451,7.207v2.2a1.032,1.032,0,0,1-1.031,1.032H500.787c-1.412.119-2.223,0.117-2.223,0.117l-0.058-.117H185.181l7.864,33.335,0.107-.038a7.808,7.808,0,0,0,.134,1.058l0.279,1.184c1.277,4.527,6.523,14.349,28.033,14.349h12.864a0.966,0.966,0,0,1,.29-0.059H502a1.032,1.032,0,0,1,1.031,1.031v29.587A1.032,1.032,0,0,1,502,349.262H279.958l0.027,0.082H208.123s-28.67-.75-44.015-35.632a7.176,7.176,0,0,1-.86-1.983c-0.013-.031-0.027-0.059-0.04-0.09l0.01,0c-0.007-.028-0.02-0.054-0.026-0.082l-40.5-171.695h-1.94a1.032,1.032,0,0,1-1.031-1.031V127.263L102.741,55.3C101,51.515,94.825,41.672,77.873,41.672c-0.382,0-.7-0.032-1.047-0.053H13.031A1.031,1.031,0,0,1,12,40.588V11.031A1.031,1.031,0,0,1,13.031,10h92.21a1.031,1.031,0,0,1,1.031,1.031v3.9c8.729,4.8,19.931,13.74,25.267,29.392a7.389,7.389,0,0,1,1.676,3.173l14.33,60.745h381.72a1.554,1.554,0,0,1,.74-0.206c1.1,0,2.586.039,4.321,0.206h10.942a1.032,1.032,0,0,1,1.032,1.031V111.3a29.915,29.915,0,0,1,15.145,14.832A49.335,49.335,0,0,1,565.434,154.659ZM260,139.858H155l22.719,96.307h98.1Zm24.069,0,15.823,96.307H396.32l15.824-96.307H284.065Zm245.435,0H436.213L420.39,236.165h78.217c13.321-1.02,19.421-15.018,19.421-15.018l17.964-73.9,0.282,0.071C536.123,141.84,531.56,140.278,529.5,139.858ZM181.765,362.671c29.212,0,52.893,24.026,52.893,53.664S210.977,470,181.765,470s-52.892-24.026-52.892-53.665S152.554,362.671,181.765,362.671Zm0.157,75.657a21.87,21.87,0,1,0-21.707-21.87A21.789,21.789,0,0,0,181.922,438.328Zm311.244-75.657c29.345,0,53.134,24.026,53.134,53.664S522.511,470,493.166,470s-53.134-24.026-53.134-53.665S463.821,362.671,493.166,362.671Zm0.241,75.71a21.8,21.8,0,1,0-21.649-21.8A21.727,21.727,0,0,0,493.407,438.381Z"/>
</svg>
