<svg xmlns="http://www.w3.org/2000/svg" width="137" height="115" viewBox="0 0 137 115">
  <defs>
    <style>
      .cls-1 {
        fill: #fff;
        fill-rule: evenodd;
      }
    </style>
  </defs>
  <path id="Rounded_Rectangle_1_copy" data-name="Rounded Rectangle 1 copy" class="cls-1" d="M134.856,36.907l0.121,0.031-3.953,16.741-0.183-.018c-0.776,2.436-2.2,6.053-4.849,8.024a12.857,12.857,0,0,1-3.294,1.761,1.018,1.018,0,0,1-.979.772h-2.575c-0.216.014-.34,0.014-0.34,0.014l-0.007-.014H43.577l1.884,8.03,0.026-.009a2.429,2.429,0,0,0,.04.29l0.046,0.2c0.277,1.063,1.483,3.517,6.742,3.517h11.5l0,0.007h55.025a1.031,1.031,0,0,1,1.031,1.031v5.531a1.031,1.031,0,0,1-1.031,1.031H66.319l0.014,0.041H49.081s-6.853-.2-10.542-8.573a1.745,1.745,0,0,1-.207-0.452c-0.011-.026-0.023-0.048-0.034-0.074h0c0-.007-0.006-0.012-0.008-0.019L28.557,33.273a1.023,1.023,0,0,1-.682-0.961V30.366L23.784,12.931c-0.418-.911-1.9-3.289-5.97-3.289-0.064,0-.1-0.015-0.161-0.018H3.031A1.031,1.031,0,0,1,2,8.594V3.031A1.031,1.031,0,0,1,3.031,2H23.594a1.031,1.031,0,0,1,1.031,1.031V3.192A12.761,12.761,0,0,1,30.7,10.3a1.784,1.784,0,0,1,.4.745l3.436,14.64h91.727a0.357,0.357,0,0,1,.09-0.032c0.213,0,.492.008,0.808,0.032h2.059a1.019,1.019,0,0,1,.97.729,7.188,7.188,0,0,1,3.71,3.607A11.95,11.95,0,0,1,134.856,36.907ZM61.535,33.344h-25.2L41.78,56.563H65.33Zm5.778,0,3.8,23.219H94.261l3.8-23.219H67.313Zm58.947,0H103.835L100.04,56.563h18.826c3.159-.281,4.611-3.612,4.611-3.612l4.312-17.833,0.062,0.016A1.848,1.848,0,0,0,126.26,33.344ZM42.734,87.094a12.956,12.956,0,1,1-12.7,12.953A12.83,12.83,0,0,1,42.734,87.094Zm0.057,18.263a5.277,5.277,0,1,0-5.211-5.277A5.244,5.244,0,0,0,42.791,105.357ZM117.5,87.094a12.955,12.955,0,1,1-12.75,12.953A12.853,12.853,0,0,1,117.5,87.094Zm0.063,18.281a5.266,5.266,0,1,0-5.188-5.266A5.228,5.228,0,0,0,117.563,105.375Z"/>
</svg>
