<?xml version="1.0" encoding="utf-8"?>
<!-- Generator: Adobe Illustrator 14.0.0, SVG Export Plug-In . SVG Version: 6.00 Build 43363)  -->
<!DOCTYPE svg PUBLIC "-//W3C//DTD SVG 1.1//EN" "http://www.w3.org/Graphics/SVG/1.1/DTD/svg11.dtd">
<svg version="1.1" id="Layer_2" xmlns="http://www.w3.org/2000/svg" xmlns:xlink="http://www.w3.org/1999/xlink" x="0px" y="0px"
	 width="612px" height="218px" viewBox="0 109.5 612 218" enable-background="new 0 109.5 612 218" xml:space="preserve">
<g>
	<g>
		<path fill="#FFFFFF" d="M171.497,241.363l75.648-86.755v-24.014H88.627c-43.308,0-63.295,22.071-63.295,69.682
			c0,24.292,6.801,41.919,20.542,53.024c13.048,10.549,25.68,11.798,41.921,11.798h45.668h2.082h319.813v-23.735H171.497z
			 M89.183,241.778c-22.347,0-31.788-8.744-32.064-33.036h84.117v-23.458h-83.84c1.111-21.238,11.383-31.232,31.788-31.232
			l121.179,0.555l-76.76,86.755v0.416H89.183z"/>
		<path fill="#FFFFFF" d="M294.062,215.544v10.966h-18.323c-8.465,0-14.435-1.527-19.292-6.107
			c-4.721-4.58-7.635-11.521-7.635-19.294c0-8.051,2.776-15.13,7.635-19.71c4.718-4.581,10.828-6.109,19.292-6.109h18.323v11.105
			h-14.435c-11.522,0-16.657,2.915-16.657,14.713c0,6.108,1.803,10.271,5.967,12.771c2.777,1.665,6.109,1.665,10.689,1.665H294.062z
			"/>
		<path fill="#FFFFFF" d="M331.682,175.29c14.019,0,21.098,6.524,21.098,19.155v32.065h-36.368
			c-10.272,0-15.825-5.414-15.825-14.714c0-11.798,6.108-16.379,20.405-16.379h17.768c0-0.555,0-0.833,0-1.249
			c0-6.524-3.748-8.328-12.215-8.328h-22.488v-10.55H331.682z M338.896,216.238v-10.549h-15.962c-5.691,0-8.328,1.11-8.328,5.691
			c0,4.303,2.498,4.858,7.357,4.858H338.896z"/>
		<path fill="#FFFFFF" d="M385.952,175.29c10.688,0,14.438,3.471,14.438,12.91v8.606h-12.908v-6.663
			c0-4.581-1.529-4.998-5.971-4.998h-4.718v41.365h-13.465v-51.22H385.952z"/>
		<path fill="#FFFFFF" d="M430.372,226.51c-15.963,0-24.985-9.855-24.985-26.234c0-6.802,1.805-12.493,5.55-17.073
			c4.861-6.107,11.108-7.913,20.269-7.913h11.52V156.69h13.465v69.819H430.372z M442.864,186.395h-8.188
			c-10.552,0-15.132,3.748-15.132,14.852c0,10.689,4.026,14.297,14.02,14.297h9.301V186.395L442.864,186.395z"/>
	</g>
	<g>
		<path fill="#FFFFFF" d="M32.967,281.617c0.971-4.581,2.776-7.773,7.495-8.19l-0.694,3.054c-1.527,0.278-2.638,1.804-2.915,3.332
			l-0.139,0.694h2.221l-1.387,6.664h-5.692L32.967,281.617z M41.433,281.617c0.972-4.581,2.776-7.773,7.496-8.19l-0.694,3.054
			c-1.528,0.278-2.638,1.804-2.916,3.332l-0.139,0.694h2.221l-1.389,6.664h-5.69L41.433,281.617z"/>
		<path fill="#FFFFFF" d="M54.342,273.427h10.411c5.136,0,8.328,1.943,7.08,7.773c-0.694,3.332-2.776,5.83-6.108,6.663v0.139
			c3.332,0.417,4.998,3.055,4.025,7.08c-0.972,4.858-4.303,9.023-11.521,9.023H47.819L54.342,273.427z M54.898,299.522h2.359
			c2.916,0,5.275-1.111,5.969-4.58c0.693-3.61-1.11-4.582-3.748-4.582h-2.637L54.898,299.522z M57.813,286.058h1.804
			c3.331,0,5.136-1.111,5.83-4.025c0.556-2.915-0.556-4.025-3.609-4.025h-2.221L57.813,286.058z"/>
		<path fill="#FFFFFF" d="M76.968,280.923h5.691l-0.695,3.053h0.14c1.665-2.22,3.608-3.748,6.107-3.748c0.277,0,0.694,0,1.11,0.139
			l-1.249,5.691c-0.555,0-1.25-0.139-1.805-0.139c-2.082,0-4.581,1.11-5.274,4.165l-2.916,13.88h-5.969L76.968,280.923z"/>
		<path fill="#FFFFFF" d="M91.82,280.923h5.968l-4.858,23.182h-5.968L91.82,280.923z M93.625,273.011h5.969l-1.111,5.135h-5.968
			L93.625,273.011z"/>
		<path fill="#FFFFFF" d="M102.37,280.923h5.69l-0.555,2.776h0.138c1.667-2.221,4.165-3.332,6.664-3.332
			c3.748,0,5.414,2.083,4.442,6.524l-3.61,17.213h-5.968l3.331-15.964c0.556-2.36-0.139-3.193-1.804-3.193
			c-2.083,0-3.47,1.25-3.886,3.888l-3.332,15.407h-5.968L102.37,280.923z"/>
		<path fill="#FFFFFF" d="M141.652,280.923l-4.72,21.931c-1.249,6.107-4.58,9.023-11.521,9.023c-4.997,0-7.357-2.222-6.524-6.247
			h5.691c-0.139,0.833,0,1.389,0.556,1.806c0.416,0.415,1.11,0.693,1.804,0.693c2.359,0,3.608-1.804,4.164-4.165l0.694-3.053h-0.138
			c-1.527,1.666-3.609,2.776-5.553,2.776c-4.719,0-6.384-3.192-4.581-11.66c1.11-5.414,3.332-11.799,9.717-11.799
			c1.666,0,3.47,0.833,4.164,3.193h0.139l0.555-2.637h5.552V280.923z M128.882,299.245c2.499,0,3.748-2.776,4.582-6.663
			c1.249-5.691,0.972-7.773-1.389-7.773c-2.638,0-3.608,2.083-4.858,8.329C126.522,296.469,126.383,299.245,128.882,299.245z"/>
		<path fill="#FFFFFF" d="M151.507,307.296c0.556,0.14,0.973,0.14,1.528,0.14c2.22,0,3.332-1.25,3.887-3.331l-1.527-23.182h6.247
			v15.962h0.138l6.385-15.962h5.969L164,302.577c-3.748,8.05-5.275,9.162-10.827,9.162h-2.359L151.507,307.296z"/>
		<path fill="#FFFFFF" d="M185.099,280.367c7.218-0.139,8.189,4.165,6.524,12.215c-1.666,7.913-4.858,12.216-11.661,12.216
			c-7.217,0.138-8.188-4.165-6.523-12.216C175.104,284.67,178.297,280.367,185.099,280.367z M180.796,300.633
			c2.359,0,3.748-2.36,4.859-8.19c1.249-5.83,0.97-8.189-1.389-8.189c-2.915,0-3.886,3.331-4.858,8.189
			C178.297,297.302,177.881,300.633,180.796,300.633z"/>
		<path fill="#FFFFFF" d="M205.226,301.466L205.226,301.466c-1.805,2.221-4.165,3.332-6.664,3.332c-3.748,0-5.413-2.083-4.441-6.524
			l3.61-17.212h5.969l-3.333,15.963c-0.554,2.36,0.141,3.192,1.805,3.192c2.082,0,3.47-1.249,3.886-3.887l3.332-15.407h5.968
			l-4.857,23.18h-5.691L205.226,301.466z"/>
		<path fill="#FFFFFF" d="M219.662,280.923h5.69l-0.693,3.053h0.14c1.665-2.22,3.608-3.748,6.106-3.748c0.28,0,0.695,0,1.111,0.139
			l-1.249,5.691c-0.556,0-1.249-0.139-1.804-0.139c-2.083,0-4.581,1.11-5.275,4.165l-2.914,13.88h-5.968L219.662,280.923z"/>
		<path fill="#FFFFFF" d="M247.424,294.525l-0.14,0.972c-0.554,2.914-0.139,4.719,3.055,4.719c1.944,0,4.025-1.249,4.441-3.748
			c0.556-2.776-0.554-3.886-4.441-5.273c-5.138-1.944-7.219-4.165-6.106-9.3c1.249-5.969,5.551-9.023,11.38-9.023
			c5.553,0,9.023,2.36,7.775,8.328l-0.14,0.833h-5.97c0.557-2.915,0-4.581-2.358-4.581c-2.776,0-3.886,1.804-4.304,3.609
			c-0.416,1.943-0.139,3.054,2.361,4.165l4.301,2.083c4.165,2.082,4.859,4.441,4.165,8.189c-1.387,6.524-5.968,9.438-12.631,9.438
			c-7.08,0-9.023-3.331-7.912-8.883l0.278-1.25h6.246V294.525z"/>
		<path fill="#FFFFFF" d="M267.966,280.923h5.691l-0.554,2.359h0.138c1.943-2.082,4.026-2.915,6.524-2.915
			c2.778,0,4.441,1.389,4.581,3.748h0.139c1.389-2.499,3.887-3.748,6.664-3.748c3.886,0,5.274,2.499,4.302,6.941l-3.609,16.796
			h-5.968l3.47-16.242c0.415-1.943,0-3.054-1.667-3.054c-1.942,0-3.332,1.25-3.886,4.025l-3.192,15.269h-5.97l3.471-16.24
			c0.417-1.943,0-3.054-1.666-3.054c-1.944,0-3.331,1.25-3.886,4.025l-3.192,15.269h-5.968L267.966,280.923z"/>
		<path fill="#FFFFFF" d="M299.338,288.001l0.138-0.555c1.111-5.275,5.137-7.08,9.718-7.08c7.08,0,7.772,2.915,6.938,7.08
			l-2.637,12.214c-0.415,2.221-0.554,3.192-0.276,4.443h-5.69c-0.278-0.695-0.278-1.667-0.278-2.361l0,0
			c-1.942,2.361-3.749,3.054-6.524,3.054c-4.166,0-4.857-3.471-4.166-6.663c0.972-4.303,3.055-6.108,7.358-7.218l3.61-0.972
			c1.803-0.417,2.637-1.11,2.914-2.776c0.418-1.805-0.14-2.777-2.083-2.777c-1.803,0-3.055,1.25-3.332,3.054l-0.138,0.694h-5.552
			V288.001z M309.331,292.582c-0.972,0.555-2.081,0.972-2.774,1.11c-2.501,0.556-3.75,1.667-4.165,3.748
			c-0.417,1.805,0,3.193,1.526,3.193c1.527,0,3.888-0.972,4.441-3.609L309.331,292.582z"/>
		<path fill="#FFFFFF" d="M322.103,280.923h5.689l-0.694,3.053h0.141c1.665-2.22,3.609-3.748,6.106-3.748
			c0.277,0,0.694,0,1.111,0.139l-1.25,5.691c-0.554,0-1.248-0.139-1.805-0.139c-2.08,0-4.58,1.11-5.272,4.165l-2.917,13.88h-5.969
			L322.103,280.923z"/>
		<path fill="#FFFFFF" d="M339.592,274.398h5.969l-1.389,6.663h3.47l-0.832,4.026h-3.472l-2.636,12.493
			c-0.415,1.805-0.139,2.498,1.526,2.498c0.417,0,0.972,0,1.39-0.138l-0.834,4.163c-1.387,0.14-2.497,0.278-3.888,0.278
			c-4.58,0-5.274-1.389-4.164-6.107l2.776-13.187h-3.053l0.832-4.026h3.055L339.592,274.398z"/>
		<path fill="#FFFFFF" d="M350.002,280.923h5.692l-0.557,2.499h0.139c1.805-2.222,3.611-3.054,5.831-3.054
			c4.857,0,6.385,3.609,4.581,12.215c-1.807,8.606-4.859,12.216-9.717,12.216c-2.222,0-3.609-0.973-4.443-2.776h-0.137l-2.083,9.717
			h-5.971L350.002,280.923z M355,300.216c2.636,0,3.606-2.636,4.719-7.634c1.11-4.997,1.11-7.635-1.526-7.635
			c-2.638,0-3.75,2.638-4.721,7.635C352.362,297.58,352.362,300.216,355,300.216z"/>
		<path fill="#FFFFFF" d="M373.599,273.427h5.97l-2.082,9.995h0.139c1.526-1.943,3.748-2.916,6.247-2.916
			c3.746,0,5.411,2.083,4.441,6.524l-3.61,17.212h-5.967l3.33-15.962c0.556-2.36-0.138-3.193-1.804-3.193
			c-2.084,0-3.47,1.25-3.887,3.887l-3.331,15.407h-5.969L373.599,273.427z"/>
		<path fill="#FFFFFF" d="M402.332,280.367c7.219-0.139,8.19,4.165,6.524,12.215c-1.665,7.913-4.857,12.216-11.658,12.216
			c-7.22,0.138-8.191-4.165-6.525-12.216C392.339,284.67,395.53,280.367,402.332,280.367z M398.03,300.633
			c2.359,0,3.748-2.36,4.857-8.19c1.248-5.83,0.972-8.189-1.387-8.189c-2.915,0-3.888,3.331-4.861,8.189
			C395.53,297.302,395.114,300.633,398.03,300.633z"/>
		<path fill="#FFFFFF" d="M414.964,280.923h5.692l-0.557,2.776h0.14c1.665-2.221,4.164-3.332,6.662-3.332
			c3.748,0,5.414,2.083,4.442,6.524l-3.608,17.213h-5.97l3.331-15.964c0.556-2.36-0.14-3.193-1.804-3.193
			c-2.082,0-3.472,1.25-3.887,3.888l-3.331,15.407h-5.97L414.964,280.923z"/>
		<path fill="#FFFFFF" d="M439.394,293.415l-0.417,1.805c-0.554,2.776-0.414,5.414,1.807,5.414c1.943,0,3.053-1.527,4.023-4.304
			h5.275c-1.389,5.414-4.58,8.33-10.133,8.33c-8.605,0-7.496-6.664-6.386-12.354c1.25-6.247,3.75-11.938,11.8-11.938
			c6.939,0,7.496,4.58,5.967,11.799l-0.276,1.388h-11.66V293.415z M446.196,289.945c0.554-3.471,0.554-5.553-1.804-5.553
			c-2.36,0-3.609,2.499-4.026,4.581l-0.141,0.972H446.196z"/>
		<path fill="#FFFFFF" d="M470.764,274.398h5.97l-1.39,6.663h3.473l-0.834,4.026h-3.47l-2.639,12.493
			c-0.415,1.805-0.137,2.498,1.528,2.498c0.416,0,0.971,0,1.388-0.138l-0.833,4.163c-1.248,0.14-2.498,0.278-3.885,0.278
			c-4.582,0-5.275-1.389-4.165-6.107l2.775-13.187h-3.192l0.832-4.026h3.055L470.764,274.398z"/>
		<path fill="#FFFFFF" d="M489.641,280.367c7.22-0.139,8.191,4.165,6.527,12.215c-1.668,7.913-4.86,12.216-11.661,12.216
			c-7.22,0.138-8.19-4.165-6.524-12.216C479.647,284.67,482.84,280.367,489.641,280.367z M485.34,300.633
			c2.359,0,3.747-2.36,4.858-8.19c1.249-5.83,0.972-8.189-1.389-8.189c-2.915,0-3.887,3.331-4.858,8.189
			C482.84,297.302,482.426,300.633,485.34,300.633z"/>
		<path fill="#FFFFFF" d="M514.906,273.427h5.967l-6.523,30.678h-5.967L514.906,273.427z"/>
		<path fill="#FFFFFF" d="M524.067,280.923h5.969l-4.859,23.182h-5.967L524.067,280.923z M525.732,273.011h5.969l-1.111,5.135
			h-5.967L525.732,273.011z"/>
		<path fill="#FFFFFF" d="M535.033,284.947h-3.056l0.834-4.024h3.054l0.555-2.638c0.834-4.164,3.609-5.552,7.357-5.552
			c1.109,0,2.082,0,3.192,0.139l-0.832,4.165c-0.417,0-0.833,0-1.111,0c-1.666,0-2.359,0.556-2.637,1.804l-0.418,2.083h3.472
			l-0.833,4.024h-3.47l-4.026,19.155h-5.968L535.033,284.947z"/>
		<path fill="#FFFFFF" d="M550.163,293.415l-0.416,1.805c-0.557,2.776-0.417,5.414,1.804,5.414c1.943,0,3.054-1.527,4.026-4.304
			h5.273c-1.387,5.414-4.579,8.33-10.134,8.33c-8.604,0-7.493-6.664-6.384-12.354c1.249-6.247,3.748-11.938,11.798-11.938
			c6.941,0,7.496,4.58,5.97,11.799l-0.278,1.388h-11.659V293.415z M556.964,289.945c0.557-3.471,0.557-5.553-1.804-5.553
			c-2.361,0-3.609,2.499-4.026,4.581l-0.138,0.972H556.964z"/>
		<path fill="#FFFFFF" d="M570.566,297.44l-1.388,6.663h-5.691l1.39-6.663H570.566z"/>
		<path fill="#FFFFFF" d="M577.508,273.427h5.691l-1.251,5.552c-0.972,4.581-2.774,7.773-7.495,8.19l0.694-3.054
			c1.527-0.278,2.637-1.804,2.914-3.331l0.141-0.695h-2.221L577.508,273.427z M585.837,273.427h5.69l-1.249,5.552
			c-0.972,4.581-2.777,7.773-7.495,8.19l0.692-3.054c1.528-0.278,2.639-1.804,2.916-3.331l0.137-0.695h-2.22L585.837,273.427z"/>
	</g>
</g>
<g>
	<path d="M398.723,256.492v4.72h-4.026v-4.72H398.723z"/>
	<path d="M409.688,250.802c0-1.527-0.276-3.332-1.943-3.332c-2.081,0-2.358,1.804-2.358,5.552c0,4.025,0.416,5.691,2.221,5.691
		c1.389,0,2.081-1.25,2.081-3.887h4.026c0,4.303-1.805,6.663-6.246,6.663c-4.165,0-6.248-2.081-6.248-8.605
		c0-6.803,2.778-8.606,6.663-8.606c3.888,0,5.831,2.498,5.831,6.385h-4.026V250.802z"/>
	<path d="M421.904,244.417c5.136-0.139,6.523,2.915,6.523,8.606c0,5.552-1.665,8.606-6.523,8.606
		c-5.135,0.139-6.524-2.916-6.524-8.606C415.38,247.47,417.047,244.417,421.904,244.417z M421.904,258.853
		c1.666,0,2.22-1.667,2.22-5.83c0-4.025-0.554-5.83-2.22-5.83c-2.083,0-2.221,2.359-2.221,5.83
		C419.684,256.492,419.821,258.853,421.904,258.853z"/>
	<path d="M430.649,244.833h4.026v1.666l0,0c1.109-1.527,2.357-2.082,4.164-2.082c1.943,0,3.33,0.972,3.746,2.637l0,0
		c0.694-1.804,2.221-2.637,4.164-2.637c2.778,0,4.026,1.803,4.026,4.858v11.937h-4.164v-11.521c0-1.388-0.416-2.082-1.665-2.082
		c-1.39,0-2.221,0.972-2.221,2.776v10.827h-4.164v-11.521c0-1.388-0.418-2.082-1.666-2.082c-1.389,0-2.221,0.972-2.221,2.776v10.827
		h-4.166v-16.379H430.649z"/>
</g>
</svg>
