<?xml version="1.0" encoding="utf-8"?>
<!-- Generator: Adobe Illustrator 14.0.0, SVG Export Plug-In . SVG Version: 6.00 Build 43363)  -->
<!DOCTYPE svg PUBLIC "-//W3C//DTD SVG 1.1//EN" "http://www.w3.org/Graphics/SVG/1.1/DTD/svg11.dtd">
<svg version="1.1" id="Layer_2" xmlns="http://www.w3.org/2000/svg" xmlns:xlink="http://www.w3.org/1999/xlink" x="0px" y="0px"
	 width="612px" height="218px" viewBox="0 0 612 218" enable-background="new 0 0 612 218" xml:space="preserve">
<g>
	<g>
		<path d="M171.497,129.128l75.648-86.756V18.358H88.627c-43.308,0-63.295,22.071-63.295,69.682c0,24.293,6.801,41.92,20.542,53.024
			c13.048,10.55,25.68,11.798,41.921,11.798h45.668h2.082h319.813v-23.734H171.497L171.497,129.128z M89.183,129.542
			c-22.347,0-31.788-8.743-32.064-33.035h84.117V73.049h-83.84c1.111-21.238,11.383-31.232,31.788-31.232l121.179,0.556
			l-76.76,86.754v0.416H89.183z"/>
		<path d="M294.062,103.309v10.966h-18.323c-8.465,0-14.435-1.527-19.292-6.107c-4.721-4.579-7.635-11.521-7.635-19.293
			c0-8.051,2.776-15.131,7.635-19.711c4.718-4.58,10.828-6.108,19.292-6.108h18.323v11.104h-14.435
			c-11.522,0-16.657,2.916-16.657,14.713c0,6.108,1.803,10.271,5.967,12.771c2.777,1.665,6.109,1.665,10.689,1.665H294.062z"/>
		<path d="M331.682,63.055c14.02,0,21.099,6.524,21.099,19.155v32.064h-36.368c-10.272,0-15.825-5.414-15.825-14.714
			c0-11.798,6.108-16.379,20.405-16.379h17.768c0-0.556,0-0.833,0-1.249c0-6.523-3.748-8.328-12.215-8.328h-22.488v-10.55H331.682z
			 M338.896,104.003V93.454h-15.963c-5.69,0-8.327,1.109-8.327,5.69c0,4.304,2.497,4.858,7.356,4.858H338.896z"/>
		<path d="M385.952,63.055c10.688,0,14.438,3.471,14.438,12.91v8.606h-12.907v-6.664c0-4.58-1.529-4.998-5.972-4.998h-4.718v41.365
			h-13.465v-51.22H385.952L385.952,63.055z"/>
		<path d="M430.372,114.274c-15.963,0-24.985-9.855-24.985-26.234c0-6.801,1.806-12.492,5.551-17.072
			c4.86-6.107,11.107-7.913,20.269-7.913h11.52V44.454h13.466v69.819L430.372,114.274L430.372,114.274z M442.864,74.159h-8.188
			c-10.552,0-15.132,3.748-15.132,14.853c0,10.688,4.026,14.297,14.021,14.297h9.301L442.864,74.159L442.864,74.159z"/>
	</g>
	<g>
		<path d="M32.967,169.382c0.971-4.581,2.776-7.773,7.495-8.19l-0.694,3.054c-1.527,0.278-2.638,1.805-2.915,3.332l-0.139,0.694
			h2.221l-1.387,6.664h-5.692L32.967,169.382z M41.433,169.382c0.972-4.581,2.776-7.773,7.496-8.19l-0.694,3.054
			c-1.528,0.278-2.638,1.805-2.916,3.332l-0.139,0.694h2.221l-1.389,6.664h-5.69L41.433,169.382z"/>
		<path d="M54.342,161.191h10.411c5.136,0,8.328,1.943,7.08,7.773c-0.694,3.332-2.776,5.829-6.108,6.663v0.139
			c3.332,0.417,4.998,3.055,4.025,7.08c-0.972,4.857-4.303,9.023-11.521,9.023h-10.41L54.342,161.191z M54.898,187.286h2.359
			c2.916,0,5.275-1.11,5.969-4.58c0.693-3.609-1.11-4.582-3.748-4.582h-2.637L54.898,187.286z M57.813,173.823h1.804
			c3.331,0,5.136-1.111,5.83-4.025c0.556-2.915-0.556-4.025-3.609-4.025h-2.221L57.813,173.823z"/>
		<path d="M76.968,168.688h5.691l-0.695,3.054h0.14c1.665-2.221,3.608-3.748,6.107-3.748c0.277,0,0.694,0,1.11,0.139l-1.249,5.691
			c-0.555,0-1.25-0.14-1.805-0.14c-2.082,0-4.581,1.11-5.274,4.165l-2.916,13.88h-5.969L76.968,168.688z"/>
		<path d="M91.82,168.688h5.968L92.93,191.87h-5.968L91.82,168.688z M93.625,160.775h5.969l-1.111,5.136h-5.968L93.625,160.775z"/>
		<path d="M102.37,168.688h5.69l-0.555,2.776h0.138c1.667-2.221,4.165-3.332,6.664-3.332c3.748,0,5.414,2.083,4.442,6.523
			l-3.61,17.213h-5.968l3.331-15.963c0.556-2.36-0.139-3.193-1.804-3.193c-2.083,0-3.47,1.25-3.886,3.888l-3.332,15.407h-5.968
			L102.37,168.688z"/>
		<path d="M141.652,168.688l-4.72,21.931c-1.249,6.107-4.58,9.023-11.521,9.023c-4.997,0-7.357-2.222-6.524-6.247h5.691
			c-0.139,0.833,0,1.39,0.556,1.806c0.416,0.416,1.11,0.693,1.804,0.693c2.359,0,3.608-1.804,4.164-4.165l0.694-3.053h-0.138
			c-1.527,1.666-3.609,2.776-5.553,2.776c-4.719,0-6.384-3.192-4.581-11.66c1.11-5.414,3.332-11.799,9.717-11.799
			c1.666,0,3.47,0.832,4.164,3.192h0.139l0.555-2.637h5.552L141.652,168.688L141.652,168.688z M128.882,187.01
			c2.499,0,3.748-2.776,4.582-6.663c1.249-5.691,0.972-7.773-1.389-7.773c-2.638,0-3.608,2.084-4.858,8.33
			C126.522,184.233,126.383,187.01,128.882,187.01z"/>
		<path d="M151.507,195.061c0.556,0.14,0.973,0.14,1.528,0.14c2.22,0,3.332-1.25,3.887-3.33l-1.527-23.183h6.247v15.962h0.138
			l6.385-15.962h5.969L164,190.342c-3.748,8.05-5.275,9.161-10.827,9.161h-2.359L151.507,195.061z"/>
		<path d="M185.099,168.132c7.218-0.139,8.189,4.165,6.524,12.215c-1.666,7.913-4.858,12.216-11.661,12.216
			c-7.217,0.138-8.188-4.165-6.523-12.216C175.104,172.435,178.297,168.132,185.099,168.132z M180.796,188.397
			c2.359,0,3.748-2.359,4.859-8.189c1.249-5.83,0.97-8.189-1.389-8.189c-2.915,0-3.886,3.331-4.858,8.189
			C178.297,185.066,177.881,188.397,180.796,188.397z"/>
		<path d="M205.226,189.23L205.226,189.23c-1.805,2.222-4.165,3.332-6.664,3.332c-3.748,0-5.413-2.083-4.441-6.524l3.61-17.211
			h5.969l-3.333,15.963c-0.554,2.359,0.141,3.191,1.805,3.191c2.082,0,3.47-1.249,3.886-3.887l3.332-15.407h5.968l-4.857,23.181
			h-5.691L205.226,189.23z"/>
		<path d="M219.662,168.688h5.69l-0.693,3.054h0.14c1.665-2.221,3.608-3.748,6.106-3.748c0.28,0,0.695,0,1.111,0.139l-1.249,5.691
			c-0.556,0-1.249-0.14-1.804-0.14c-2.083,0-4.581,1.11-5.275,4.165l-2.914,13.88h-5.968L219.662,168.688z"/>
		<path d="M247.424,182.29l-0.14,0.972c-0.554,2.914-0.139,4.719,3.055,4.719c1.944,0,4.025-1.249,4.441-3.748
			c0.556-2.776-0.554-3.886-4.441-5.272c-5.138-1.944-7.219-4.166-6.106-9.301c1.249-5.969,5.551-9.022,11.38-9.022
			c5.553,0,9.023,2.36,7.775,8.328l-0.14,0.833h-5.97c0.557-2.915,0-4.581-2.358-4.581c-2.776,0-3.886,1.804-4.304,3.608
			c-0.416,1.943-0.139,3.055,2.361,4.166l4.301,2.082c4.165,2.082,4.859,4.441,4.165,8.189c-1.387,6.523-5.968,9.438-12.631,9.438
			c-7.08,0-9.023-3.33-7.912-8.883l0.278-1.25h6.246V182.29z"/>
		<path d="M267.966,168.688h5.691l-0.554,2.359h0.138c1.943-2.082,4.026-2.915,6.524-2.915c2.778,0,4.441,1.389,4.581,3.748h0.139
			c1.389-2.499,3.887-3.748,6.664-3.748c3.886,0,5.274,2.499,4.302,6.941l-3.609,16.795h-5.968l3.47-16.242
			c0.415-1.942,0-3.053-1.667-3.053c-1.942,0-3.332,1.25-3.886,4.024l-3.192,15.269h-5.97l3.471-16.24
			c0.417-1.942,0-3.053-1.666-3.053c-1.944,0-3.331,1.25-3.886,4.024l-3.192,15.269h-5.968L267.966,168.688z"/>
		<path d="M299.338,175.766l0.138-0.556c1.111-5.274,5.137-7.079,9.718-7.079c7.08,0,7.771,2.915,6.938,7.079l-2.637,12.215
			c-0.415,2.221-0.554,3.191-0.276,4.443h-5.689c-0.278-0.695-0.278-1.668-0.278-2.361l0,0c-1.942,2.361-3.749,3.054-6.524,3.054
			c-4.166,0-4.857-3.471-4.166-6.663c0.972-4.303,3.055-6.107,7.358-7.218l3.61-0.972c1.803-0.418,2.637-1.11,2.914-2.776
			c0.418-1.806-0.141-2.776-2.083-2.776c-1.804,0-3.055,1.25-3.333,3.053l-0.138,0.695h-5.552V175.766L299.338,175.766z
			 M309.331,180.347c-0.972,0.555-2.081,0.973-2.774,1.109c-2.5,0.557-3.75,1.668-4.165,3.748c-0.417,1.806,0,3.193,1.526,3.193
			c1.527,0,3.888-0.972,4.441-3.609L309.331,180.347z"/>
		<path d="M322.103,168.688h5.689l-0.694,3.054h0.142c1.665-2.221,3.608-3.748,6.105-3.748c0.277,0,0.694,0,1.111,0.139l-1.25,5.691
			c-0.554,0-1.248-0.14-1.805-0.14c-2.08,0-4.58,1.11-5.272,4.165l-2.917,13.88h-5.969L322.103,168.688z"/>
		<path d="M339.592,162.163h5.969l-1.389,6.662h3.47l-0.832,4.026h-3.472l-2.636,12.493c-0.415,1.805-0.139,2.498,1.526,2.498
			c0.416,0,0.972,0,1.39-0.139l-0.834,4.164c-1.387,0.14-2.497,0.277-3.888,0.277c-4.58,0-5.274-1.389-4.164-6.107l2.775-13.187
			h-3.053l0.832-4.026h3.055L339.592,162.163z"/>
		<path d="M350.002,168.688h5.692l-0.558,2.499h0.14c1.805-2.222,3.61-3.054,5.831-3.054c4.856,0,6.385,3.608,4.58,12.215
			c-1.807,8.606-4.858,12.216-9.717,12.216c-2.222,0-3.608-0.973-4.442-2.775h-0.138l-2.083,9.717h-5.971L350.002,168.688z
			 M355,187.98c2.636,0,3.606-2.636,4.719-7.634c1.11-4.997,1.11-7.635-1.525-7.635c-2.639,0-3.75,2.638-4.722,7.635
			C352.362,185.345,352.362,187.98,355,187.98z"/>
		<path d="M373.599,161.191h5.971l-2.082,9.995h0.139c1.526-1.943,3.748-2.916,6.247-2.916c3.746,0,5.411,2.083,4.441,6.523
			l-3.61,17.213h-5.967l3.33-15.963c0.556-2.359-0.139-3.192-1.805-3.192c-2.084,0-3.47,1.25-3.887,3.888l-3.331,15.406h-5.969
			L373.599,161.191z"/>
		<path d="M402.332,168.132c7.219-0.139,8.19,4.165,6.524,12.215c-1.665,7.913-4.857,12.216-11.658,12.216
			c-7.221,0.138-8.191-4.165-6.525-12.216C392.339,172.435,395.53,168.132,402.332,168.132z M398.03,188.397
			c2.358,0,3.748-2.359,4.856-8.189c1.248-5.83,0.973-8.189-1.387-8.189c-2.915,0-3.888,3.331-4.861,8.189
			C395.53,185.066,395.114,188.397,398.03,188.397z"/>
		<path d="M414.964,168.688h5.692l-0.558,2.776h0.141c1.665-2.221,4.164-3.332,6.662-3.332c3.748,0,5.414,2.083,4.441,6.523
			l-3.607,17.213h-5.971l3.331-15.963c0.557-2.36-0.14-3.193-1.804-3.193c-2.082,0-3.472,1.25-3.887,3.888l-3.331,15.407h-5.971
			L414.964,168.688z"/>
		<path d="M439.394,181.18l-0.417,1.806c-0.554,2.775-0.413,5.413,1.808,5.413c1.942,0,3.053-1.526,4.022-4.304h5.275
			c-1.389,5.414-4.58,8.33-10.133,8.33c-8.605,0-7.496-6.664-6.386-12.354c1.25-6.248,3.75-11.938,11.8-11.938
			c6.938,0,7.496,4.58,5.967,11.799l-0.276,1.388h-11.659L439.394,181.18L439.394,181.18z M446.196,177.71
			c0.554-3.471,0.554-5.553-1.805-5.553c-2.359,0-3.608,2.498-4.025,4.58l-0.142,0.973H446.196L446.196,177.71z"/>
		<path d="M470.764,162.163h5.971l-1.391,6.662h3.474l-0.834,4.026h-3.471l-2.639,12.493c-0.415,1.805-0.137,2.498,1.528,2.498
			c0.416,0,0.971,0,1.388-0.139l-0.833,4.164c-1.248,0.14-2.498,0.277-3.885,0.277c-4.582,0-5.275-1.389-4.165-6.107l2.774-13.187
			h-3.191l0.832-4.026h3.055L470.764,162.163z"/>
		<path d="M489.641,168.132c7.221-0.139,8.191,4.165,6.527,12.215c-1.668,7.913-4.86,12.216-11.661,12.216
			c-7.22,0.138-8.189-4.165-6.523-12.216C479.647,172.435,482.84,168.132,489.641,168.132z M485.34,188.397
			c2.359,0,3.747-2.359,4.858-8.189c1.249-5.83,0.972-8.189-1.39-8.189c-2.915,0-3.887,3.331-4.857,8.189
			C482.84,185.066,482.426,188.397,485.34,188.397z"/>
		<path d="M514.906,161.191h5.967l-6.523,30.679h-5.967L514.906,161.191z"/>
		<path d="M524.067,168.688h5.969l-4.859,23.183h-5.967L524.067,168.688z M525.732,160.775h5.969l-1.111,5.136h-5.967
			L525.732,160.775z"/>
		<path d="M535.033,172.712h-3.057l0.834-4.024h3.055l0.555-2.638c0.834-4.164,3.609-5.553,7.357-5.553c1.108,0,2.082,0,3.191,0.14
			l-0.832,4.165c-0.417,0-0.833,0-1.11,0c-1.666,0-2.359,0.556-2.638,1.804l-0.418,2.083h3.473l-0.833,4.024h-3.471l-4.025,19.155
			h-5.969L535.033,172.712z"/>
		<path d="M550.163,181.18l-0.416,1.806c-0.557,2.775-0.417,5.413,1.804,5.413c1.943,0,3.055-1.526,4.026-4.304h5.272
			c-1.387,5.414-4.578,8.33-10.134,8.33c-8.604,0-7.493-6.664-6.384-12.354c1.249-6.248,3.748-11.938,11.798-11.938
			c6.941,0,7.496,4.58,5.97,11.799l-0.277,1.388h-11.659V181.18z M556.964,177.71c0.558-3.471,0.558-5.553-1.804-5.553
			s-3.609,2.498-4.026,4.58l-0.138,0.973H556.964L556.964,177.71z"/>
		<path d="M570.566,185.204l-1.389,6.664h-5.69l1.39-6.664H570.566z"/>
		<path d="M577.508,161.191h5.691l-1.251,5.552c-0.973,4.582-2.774,7.773-7.495,8.19l0.693-3.054
			c1.527-0.278,2.638-1.805,2.914-3.331l0.142-0.695h-2.222L577.508,161.191z M585.837,161.191h5.69l-1.249,5.552
			c-0.973,4.582-2.777,7.773-7.495,8.19l0.691-3.054c1.528-0.278,2.64-1.805,2.916-3.331l0.138-0.695h-2.221L585.837,161.191z"/>
	</g>
</g>
<g>
	<path fill="#FFFFFF" d="M398.723,144.257v4.72h-4.025v-4.72H398.723z"/>
	<path fill="#FFFFFF" d="M409.688,138.566c0-1.526-0.275-3.331-1.942-3.331c-2.081,0-2.358,1.803-2.358,5.551
		c0,4.025,0.416,5.691,2.222,5.691c1.389,0,2.081-1.25,2.081-3.887h4.025c0,4.303-1.805,6.663-6.246,6.663
		c-4.165,0-6.248-2.081-6.248-8.605c0-6.803,2.778-8.606,6.663-8.606c3.889,0,5.831,2.498,5.831,6.386h-4.025v0.139H409.688z"/>
	<path fill="#FFFFFF" d="M421.904,132.182c5.136-0.14,6.522,2.915,6.522,8.606c0,5.552-1.665,8.605-6.522,8.605
		c-5.136,0.139-6.524-2.916-6.524-8.605C415.38,135.235,417.047,132.182,421.904,132.182z M421.904,146.618
		c1.666,0,2.22-1.668,2.22-5.83c0-4.025-0.554-5.83-2.22-5.83c-2.083,0-2.222,2.358-2.222,5.83
		C419.684,144.257,419.821,146.618,421.904,146.618z"/>
	<path fill="#FFFFFF" d="M430.649,132.598h4.025v1.666l0,0c1.109-1.526,2.357-2.082,4.164-2.082c1.943,0,3.33,0.972,3.746,2.638l0,0
		c0.694-1.805,2.221-2.638,4.164-2.638c2.778,0,4.026,1.803,4.026,4.858v11.937h-4.164v-11.521c0-1.389-0.416-2.082-1.665-2.082
		c-1.391,0-2.222,0.972-2.222,2.775v10.827h-4.164v-11.521c0-1.389-0.418-2.082-1.666-2.082c-1.389,0-2.221,0.972-2.221,2.775
		v10.827h-4.166v-16.379H430.649z"/>
</g>
</svg>
