<?xml version="1.0" encoding="utf-8"?>
<!-- Generator: Adobe Illustrator 14.0.0, SVG Export Plug-In . SVG Version: 6.00 Build 43363)  -->
<!DOCTYPE svg PUBLIC "-//W3C//DTD SVG 1.1//EN" "http://www.w3.org/Graphics/SVG/1.1/DTD/svg11.dtd">
<svg version="1.1" id="Layer_1" xmlns="http://www.w3.org/2000/svg" xmlns:xlink="http://www.w3.org/1999/xlink" x="0px" y="0px"
	 width="250px" height="239.333px" viewBox="0 0 250 239.333" enable-background="new 0 0 250 239.333" xml:space="preserve">
<g>
	<g>
		<path d="M81.428,134.833V120.57H24.066c0,0-4.961-0.621-4.961-4.961c0-4.34,0.31-17.673,0.31-17.673h62.013V83.672H19.415
			c0,0-0.31-13.333-0.31-17.674c0-4.341,4.961-4.96,4.961-4.96h106.972l-2.033,2.748l-47.166,71.047h75.554V120.57h-46.819
			l46.819-72.246v-1.55H18.174c0,0-13.333,3.101-13.333,15.193v26.976c0,0,0,1.419,0,3.721v26.975
			c0,12.092,13.333,15.193,13.333,15.193H81.428z M146.243,185.729c0,0-18.63,12.135-47.344,13.502
			c-49.605,2.362-74.007-13.844-74.007-13.844c8.888,13.332,25.295,25.979,25.295,25.979c11.524,6.238,57.32,0.417,75.104-9.668
			C139.286,193.765,146.243,185.729,146.243,185.729z M173.657,63.344c-0.807-0.687-1.619-1.354-2.437-2.008
			c5.59,6.356,10.146,13.625,13.51,21.758c27.667,66.909-3.438,119.339-21.839,142.403c17.305-7.187,32.463-18.504,44.242-32.721
			c0.083-0.367,0.167-0.734,0.247-1.119C213.077,164.277,211.732,95.76,173.657,63.344z M180.374,97.428
			c-0.018-0.038-0.034-0.075-0.05-0.113c3.571,16.42,1.921,38.779-11.18,68.877c-17.959,41.254-61.333,54.437-97.089,57.891
			c14.349,6.492,30.277,10.106,47.05,10.106c2.412,0,4.805-0.082,7.181-0.229C175.272,217.566,199.257,140.507,180.374,97.428z
			 M233.367,119.928c0-63.105-51.156-114.262-114.261-114.262c-27.701,0-53.097,9.859-72.876,26.257
			c11.756-5.327,30.115-10.546,55.573-9.135c66.922,3.709,103.332,44.659,113.539,95.583c5.553,27.693,3.879,48.335,1.499,60.778
			C227.328,161.879,233.367,141.608,233.367,119.928z M153.149,173.359v-10.978c0.109-0.704,0.166-1.427,0.166-2.162
			c0-0.734-0.057-1.457-0.166-2.162v-16.912h-4.453v8.678c-2.484-2.246-5.779-3.615-9.394-3.615c-7.737,0-14.01,6.272-14.01,14.012
			c0,7.738,6.273,14.013,14.01,14.013c3.614,0,6.909-1.369,9.394-3.615v2.742H153.149z M139.303,169.748
			c-5.262,0-9.526-4.267-9.526-9.528s4.265-9.527,9.526-9.527c5.264,0,9.529,4.266,9.529,9.527S144.566,169.748,139.303,169.748z
			 M99.532,147.692v25.667h4.453v-19.263c1.259-2.331,4.582-1.559,4.582-1.559v-4.819c0,0-2.318,0-2.969,0
			c-0.388,0-1.101,0.506-1.613,0.915v-0.941H99.532z M82.9,173.359v-25.664h-4.453v2.551c-2.531-2.496-6.004-4.038-9.839-4.038
			c-7.738,0-14.012,6.272-14.012,14.012c0,7.738,6.273,14.013,14.012,14.013c3.835,0,7.308-1.542,9.839-4.038v3.165H82.9z
			 M68.792,169.748c-5.262,0-9.528-4.267-9.528-9.528s4.266-9.527,9.528-9.527c5.263,0,9.528,4.266,9.528,9.527
			S74.055,169.748,68.792,169.748z M38.47,164.716h-4.869c-1.606,2.994-4.765,5.032-8.402,5.032c-5.262,0-9.528-4.267-9.528-9.528
			s4.266-9.527,9.528-9.527c3.637,0,6.795,2.037,8.402,5.031h4.869c-1.874-5.531-7.105-9.516-13.271-9.516
			c-7.738,0-14.012,6.272-14.012,14.012c0,7.738,6.273,14.013,14.012,14.013C31.365,174.232,36.596,170.248,38.47,164.716z
			 M228.223,166.203h3.391v8.999h1.354v-8.999h3.391v-1.225h-8.136V166.203z M245.246,164.979l-2.847,8.644h-0.027l-2.86-8.644
			h-1.939v10.224h1.312v-6.037c0-0.299-0.028-1.596-0.028-2.535h0.028l2.818,8.572h1.34l2.818-8.586h0.027
			c0,0.953-0.027,2.25-0.027,2.549v6.037h1.312v-10.224H245.246z"/>
	</g>
</g>
</svg>
