<?xml version="1.0" encoding="utf-8"?>
<!-- Generator: Adobe Illustrator 14.0.0, SVG Export Plug-In . SVG Version: 6.00 Build 43363)  -->
<!DOCTYPE svg PUBLIC "-//W3C//DTD SVG 1.1//EN" "http://www.w3.org/Graphics/SVG/1.1/DTD/svg11.dtd">
<svg version="1.1" id="Layer_2" xmlns="http://www.w3.org/2000/svg" xmlns:xlink="http://www.w3.org/1999/xlink" x="0px" y="0px"
	 width="612px" height="218px" viewBox="0 0 612 218" enable-background="new 0 0 612 218" xml:space="preserve">
<g>
	<g>
		<path d="M217.343,165.871l99.375-113.967V20.358H108.48c-56.892,0-83.148,28.994-83.148,91.539
			c0,31.912,8.934,55.067,26.985,69.654c17.14,13.859,33.735,15.498,55.069,15.498h59.992h2.735h420.125V165.87L217.343,165.871
			L217.343,165.871z M109.21,166.415c-29.356,0-41.759-11.485-42.121-43.396h110.5V92.203H67.453
			c1.459-27.899,14.953-41.028,41.758-41.028l159.188,0.73L167.563,165.869v0.546H109.21L109.21,166.415z"/>
		<path d="M378.351,131.954v14.405h-24.067c-11.121,0-18.963-2.008-25.344-8.023c-6.201-6.016-10.029-15.134-10.029-25.345
			c0-10.576,3.646-19.876,10.029-25.893c6.196-6.017,14.225-8.024,25.344-8.024h24.067v14.588h-18.963
			c-15.136,0-21.881,3.831-21.881,19.328c0,8.023,2.368,13.492,7.838,16.777c3.648,2.188,8.025,2.188,14.042,2.188L378.351,131.954
			L378.351,131.954z"/>
		<path d="M427.77,79.074c18.417,0,27.719,8.571,27.719,25.164v42.122h-47.775c-13.494,0-20.789-7.11-20.789-19.327
			c0-15.499,8.024-21.517,26.807-21.517h23.342c0-0.73,0-1.094,0-1.641c0-8.569-4.924-10.94-16.046-10.94H391.48v-13.86H427.77z
			 M437.248,132.866v-13.858h-20.97c-7.478,0-10.939,1.458-10.939,7.477c0,5.652,3.28,6.384,9.664,6.384L437.248,132.866
			L437.248,132.866z"/>
		<path d="M499.063,79.074c14.04,0,18.968,4.56,18.968,16.959v11.306h-16.955v-8.754c0-6.017-2.009-6.565-7.847-6.565h-6.195v54.339
			h-17.688V79.074H499.063L499.063,79.074z"/>
		<path d="M557.415,146.359c-20.97,0-32.822-12.947-32.822-34.463c0-8.936,2.372-16.413,7.292-22.43
			c6.385-8.023,14.592-10.395,26.626-10.395h15.133V54.639h17.689v91.718h-33.918V146.359L557.415,146.359z M573.826,93.662h-10.757
			c-13.862,0-19.88,4.923-19.88,19.511c0,14.041,5.289,18.781,18.42,18.781h12.218L573.826,93.662L573.826,93.662z"/>
	</g>
</g>
<g>
	<path fill="#FFFFFF" d="M530.243,178.089v0.183l0,0"/>
</g>
</svg>
