<?xml version="1.0" encoding="utf-8"?>
<!-- Generator: Adobe Illustrator 14.0.0, SVG Export Plug-In . SVG Version: 6.00 Build 43363)  -->
<!DOCTYPE svg PUBLIC "-//W3C//DTD SVG 1.1//EN" "http://www.w3.org/Graphics/SVG/1.1/DTD/svg11.dtd">
<svg version="1.1" id="Layer_1" xmlns="http://www.w3.org/2000/svg" xmlns:xlink="http://www.w3.org/1999/xlink" x="0px" y="0px"
	 width="360px" height="360px" viewBox="0 0 360 360" enable-background="new 0 0 360 360" xml:space="preserve">
<path fill="#D3D3D3" d="M204.613,156.231c0,9.631-7.809,17.439-17.438,17.439h-11.407c-9.631,0-17.439-7.808-17.439-17.439V29.786
	c0-9.631,7.808-17.439,17.439-17.439h11.407c9.63,0,17.438,7.808,17.438,17.439V156.231z"/>
<path fill="#D3D3D3" d="M233.318,57.868c-5.714-1.079-11.929-0.479-12.774,9.494v33.721c0.061-0.122,0.104-0.208,0.104-0.208
	c0,5.58,0.982,13.253,7.222,17.083c0.166,0.099,0.333,0.196,0.498,0.296c0.385,0.214,0.777,0.419,1.2,0.604h-0.231
	c25.493,16.071,42.437,44.468,42.437,76.832c0,50.132-40.64,90.772-90.771,90.772c-50.134,0-90.774-40.641-90.774-90.772
	c0-34.164,18.88-63.912,46.771-79.401h-0.014c0.075-0.033,0.14-0.074,0.214-0.107c0.505-0.279,1.015-0.552,1.526-0.821
	c4.296-2.66,6.085-7.143,6.775-11.506V68.396c0-12.531-6.989-13.088-13.226-11.836c-57.455,20.12-98.667,74.804-98.667,139.128
	c0,81.403,65.99,147.394,147.394,147.394c81.402,0,147.393-65.99,147.393-147.394C328.393,132.713,288.891,78.975,233.318,57.868z"
	/>
</svg>
